<svg xmlns="http://www.w3.org/2000/svg" width="150" height="23" viewBox="0 0 150 23"><g><g><path fill="none" stroke="#deab6b" stroke-miterlimit="20" d="M10 12.16v0l4.053-1.672v0l4.052 1.671v0l4.053-1.67v0l4.053 1.67v0l4.052-1.67v0l4.053 1.67v0l4.052-1.67v0l4.054 1.67v0l4.052-1.67v0l4.053 1.67v0l4.052-1.67v0l4.053 1.67v0l4.053-1.67v0l4.052 1.67v0l4.053-1.67v0l4.053 1.67v0"/></g><g><path fill="none" stroke="#deab6b" stroke-miterlimit="20" d="M75 12.16v0l4.053-1.672v0l4.052 1.671v0l4.053-1.67v0l4.053 1.67v0l4.052-1.67v0l4.053 1.67v0l4.052-1.67v0l4.054 1.67v0l4.052-1.67v0l4.053 1.67v0l4.052-1.67v0l4.053 1.67v0l4.053-1.67v0l4.052 1.67v0l4.053-1.67v0l4.053 1.67v0"/></g></g></svg>