<svg xmlns="http://www.w3.org/2000/svg" width="25" height="24" viewBox="0 0 25 24"><g><g><path fill="#142e4a" d="M.3 23.91h5.297V8.004H.3zM2.988.32C1.186.32 0 1.506 0 3.071c0 1.534 1.154 2.752 2.925 2.752h.032c1.85 0 2.988-1.218 2.988-2.752C5.913 1.506 4.791.321 2.988.321zm15.606 7.32c-2.815 0-4.08 1.55-4.775 2.625v.048h-.032c0-.016.016-.032.032-.048v-2.26H8.522c.063 1.486 0 15.905 0 15.905h5.297v-8.886c0-.49.031-.948.174-1.296.395-.949 1.265-1.929 2.72-1.929 1.912 0 2.671 1.47 2.671 3.605v8.506h5.297v-9.123c0-4.885-2.625-7.162-6.087-7.146z"/></g></g></svg>