<svg xmlns="http://www.w3.org/2000/svg" width="33" height="27" viewBox="0 0 33 27"><g><g><path fill="#142e4a" d="M32.495 3.671a13.766 13.766 0 0 1-3.804 1.043 6.565 6.565 0 0 0 2.904-3.65 13.194 13.194 0 0 1-4.186 1.599 6.616 6.616 0 0 0-4.823-2.09c-3.655 0-6.598 2.967-6.598 6.604 0 .524.044 1.027.153 1.506-5.489-.268-10.346-2.899-13.609-6.906a6.647 6.647 0 0 0-.903 3.337 6.612 6.612 0 0 0 2.932 5.487 6.52 6.52 0 0 1-2.983-.813v.072c0 3.209 2.289 5.874 5.29 6.488a6.59 6.59 0 0 1-1.731.217c-.423 0-.85-.024-1.25-.113.855 2.615 3.283 4.537 6.17 4.6a13.266 13.266 0 0 1-8.187 2.815c-.541 0-1.06-.024-1.58-.09a18.587 18.587 0 0 0 10.128 2.963c12.15 0 18.792-10.064 18.792-18.788 0-.292-.01-.573-.024-.853a13.171 13.171 0 0 0 3.309-3.428z"/></g></g></svg>