<svg xmlns="http://www.w3.org/2000/svg" width="33" height="34" viewBox="0 0 33 34"><g><g><g><path fill="#142e4a" d="M13.73 25.434l-3.79 3.79a4.02 4.02 0 1 1-5.687-5.685l7.583-7.582a4.02 4.02 0 0 1 5.685 0 1.34 1.34 0 0 0 1.896-1.896 6.7 6.7 0 0 0-9.477 0l-7.582 7.582a6.7 6.7 0 0 0 0 9.477 6.7 6.7 0 0 0 9.478 0l3.79-3.79a1.34 1.34 0 1 0-1.895-1.896z"/></g><g><path fill="#142e4a" d="M30.6 2.879a6.702 6.702 0 0 0-9.478 0l-4.548 4.547a1.34 1.34 0 0 0 1.896 1.896l4.547-4.548a4.021 4.021 0 0 1 5.687 5.686l-8.34 8.34a4.02 4.02 0 0 1-5.685 0 1.34 1.34 0 0 0-1.895 1.895 6.7 6.7 0 0 0 9.476 0l8.34-8.34a6.7 6.7 0 0 0 0-9.476z"/></g></g></g></svg>